<svg xmlns="http://www.w3.org/2000/svg" xmlns:xlink="http://www.w3.org/1999/xlink" width="500" zoomAndPan="magnify" viewBox="0 0 375 374.999991" height="500" preserveAspectRatio="xMidYMid meet" version="1.0"><defs><g/><clipPath id="04b7d5b5d9"><path d="M 227 54 L 299 54 L 299 271 L 227 271 Z M 227 54 " clip-rule="nonzero"/></clipPath><clipPath id="8510a4ac91"><path d="M 218.953125 45.601562 L 332.824219 64.933594 L 297.921875 270.492188 L 184.054688 251.160156 Z M 218.953125 45.601562 " clip-rule="nonzero"/></clipPath><clipPath id="6509b29b77"><path d="M 218.953125 45.601562 L 332.824219 64.933594 L 297.921875 270.492188 L 184.054688 251.160156 Z M 218.953125 45.601562 " clip-rule="nonzero"/></clipPath><clipPath id="f2e4edad01"><path d="M 218.953125 45.601562 L 332.824219 64.933594 L 297.921875 270.492188 L 184.054688 251.160156 Z M 218.953125 45.601562 " clip-rule="nonzero"/></clipPath><clipPath id="0d04ab81b2"><path d="M 209 102 L 269 102 L 269 130 L 209 130 Z M 209 102 " clip-rule="nonzero"/></clipPath><clipPath id="65e8206f5e"><path d="M 218.953125 45.601562 L 332.824219 64.933594 L 297.921875 270.492188 L 184.054688 251.160156 Z M 218.953125 45.601562 " clip-rule="nonzero"/></clipPath><clipPath id="b0fddaa00f"><path d="M 218.953125 45.601562 L 332.824219 64.933594 L 297.921875 270.492188 L 184.054688 251.160156 Z M 218.953125 45.601562 " clip-rule="nonzero"/></clipPath><clipPath id="630654945a"><path d="M 218.953125 45.601562 L 332.824219 64.933594 L 297.921875 270.492188 L 184.054688 251.160156 Z M 218.953125 45.601562 " clip-rule="nonzero"/></clipPath></defs><rect x="-37.5" width="450" fill="#ffffff" y="-37.499999" height="449.999989" fill-opacity="1"/><rect x="-37.5" width="450" fill="#f2f1ee" y="-37.499999" height="449.999989" fill-opacity="1"/><g clip-path="url(#04b7d5b5d9)"><g clip-path="url(#8510a4ac91)"><g clip-path="url(#6509b29b77)"><g clip-path="url(#f2e4edad01)"><path fill="#000000" d="M 233.078125 95.832031 C 233.84375 96.097656 234.992188 95.707031 235.761719 95.164062 C 238.824219 93.066406 242.535156 90.859375 246.609375 90.511719 C 246.703125 90.484375 246.835938 90.503906 246.929688 90.476562 C 246.089844 90.917969 245.09375 91.203125 244.140625 91.492188 C 242.101562 92.089844 240.007812 92.726562 239.351562 94.734375 C 239.242188 95.121094 239.101562 95.683594 239.332031 96.175781 C 239.59375 96.761719 240.121094 97.121094 240.625 97.339844 C 243.652344 98.890625 247.148438 98.761719 250.511719 98.613281 C 252.054688 98.558594 253.648438 98.46875 255.210938 98.554688 C 255.746094 98.601562 256.234375 98.636719 256.769531 98.683594 C 256.988281 98.722656 257.214844 98.714844 257.433594 98.75 C 260.140625 102.457031 261.714844 107.007812 261.796875 111.574219 C 261.804688 112.839844 261.730469 114.089844 261.652344 115.335938 C 261.429688 118.5 261.230469 121.804688 262.773438 124.949219 C 263.679688 126.773438 265.210938 128.113281 267.015625 128.644531 C 268.609375 129.097656 270.136719 128.859375 271.59375 127.980469 C 271.511719 128.191406 271.386719 128.394531 271.308594 128.609375 C 268.96875 133.621094 266.242188 138.523438 263.632812 143.265625 C 262.257812 145.78125 260.824219 148.378906 259.441406 150.9375 C 255.332031 158.671875 251.660156 166.75 248.085938 174.527344 C 246.011719 179.042969 243.855469 183.773438 241.640625 188.308594 C 240.039062 191.644531 240.011719 195.515625 241.648438 198.636719 C 243.746094 202.734375 247.457031 203.996094 251.074219 205.285156 C 252.050781 205.632812 253.03125 205.976562 254 206.367188 C 255.8125 207.125 260.042969 209.289062 260.464844 213.191406 C 255.941406 214.585938 251.03125 214.5625 246.546875 213.082031 C 245.304688 212.691406 244.085938 212.167969 242.910156 211.652344 C 240.84375 210.804688 238.742188 209.910156 236.453125 209.566406 C 232.886719 209.050781 228.503906 210.425781 227.398438 214.023438 C 227.167969 214.839844 227.1875 215.519531 227.449219 216.105469 C 227.785156 216.792969 228.484375 217.183594 229.195312 217.53125 C 236.085938 220.773438 243.824219 219.5625 251.324219 218.402344 C 255.3125 217.769531 259.429688 217.164062 263.441406 217.167969 C 265.421875 217.1875 267.921875 217.34375 270.0625 218.5625 C 272.074219 219.714844 273.496094 221.714844 274.839844 223.609375 L 275.167969 224.074219 C 279.109375 229.566406 283.667969 234.578125 288.683594 239.035156 C 288.953125 239.308594 289.277344 239.542969 289.546875 239.8125 C 291.585938 241.601562 293.671875 243.398438 295.039062 245.703125 C 296.902344 248.816406 297.34375 252.585938 297.539062 256.226562 C 297.816406 260.964844 297.746094 265.640625 297.394531 270.359375 C 297.570312 270.390625 297.738281 270.460938 297.914062 270.492188 C 298.226562 265.722656 298.3125 260.957031 298.035156 256.222656 C 297.847656 252.539062 297.378906 248.671875 295.441406 245.457031 C 294.003906 243.050781 291.878906 241.199219 289.839844 239.410156 C 289.5625 239.183594 289.25 238.90625 288.972656 238.679688 C 283.949219 234.265625 279.429688 229.257812 275.527344 223.816406 L 275.199219 223.355469 C 273.816406 221.410156 272.363281 219.359375 270.222656 218.136719 C 268.003906 216.859375 265.375 216.683594 263.347656 216.65625 C 259.335938 216.652344 255.167969 217.296875 251.144531 217.875 C 243.363281 219.078125 236.042969 220.226562 229.320312 217.054688 C 228.734375 216.773438 228.113281 216.445312 227.847656 215.902344 C 227.578125 215.363281 227.6875 214.703125 227.859375 214.238281 C 228.855469 211.023438 232.921875 209.640625 236.359375 210.132812 C 238.558594 210.464844 240.660156 211.359375 242.683594 212.199219 C 243.855469 212.714844 245.082031 213.195312 246.363281 213.636719 C 251.019531 215.148438 256.160156 215.164062 260.835938 213.660156 L 261.027344 213.601562 L 261.019531 213.375 C 260.71875 209.039062 256.15625 206.6875 254.222656 205.863281 C 253.25 205.472656 252.226562 205.121094 251.25 204.773438 C 247.589844 203.476562 244.136719 202.304688 242.136719 198.402344 C 240.613281 195.4375 240.609375 191.742188 242.144531 188.53125 C 244.367188 183.949219 246.515625 179.265625 248.597656 174.703125 C 252.171875 166.925781 255.886719 158.855469 259.945312 151.160156 C 261.328125 148.597656 262.761719 146 264.136719 143.484375 C 266.789062 138.75 269.523438 133.804688 271.863281 128.792969 C 272.066406 128.375 272.28125 127.917969 272.488281 127.5 C 272.496094 127.457031 272.554688 127.375 272.558594 127.332031 C 273.402344 126.621094 274.246094 125.636719 275.039062 124.417969 C 276.273438 122.464844 277.253906 120.421875 278.113281 118.265625 C 279.691406 116.6875 282.011719 114.960938 284.960938 114.605469 C 285.140625 114.589844 285.324219 114.578125 285.507812 114.5625 C 286.65625 114.441406 287.933594 114.34375 288.640625 113.382812 C 289.109375 112.742188 289.164062 111.894531 289.171875 111.039062 C 289.210938 108.699219 289.203125 106.355469 289.144531 104.046875 C 289.144531 103.773438 289.117188 103.140625 288.621094 102.875 C 288.292969 102.683594 287.960938 102.761719 287.582031 102.878906 C 286.96875 103.042969 286.273438 102.882812 285.800781 102.484375 C 285.332031 102.046875 285.070312 101.460938 285.183594 100.804688 L 286.078125 94.734375 C 286.34375 94.238281 286.554688 93.777344 286.820312 93.28125 C 287.960938 91.085938 289.164062 88.765625 289.976562 86.378906 C 291.386719 82.335938 291.757812 78.023438 292.113281 73.804688 L 292.15625 73.269531 C 292.226562 72.605469 291.925781 71.96875 291.402344 71.609375 C 291.039062 71.367188 290.589844 71.335938 290.203125 71.496094 C 289.324219 71.886719 288.691406 73.222656 288.523438 74.230469 L 285.53125 94.503906 C 285.046875 95.503906 284.515625 96.496094 284.074219 97.503906 C 282.46875 101.109375 281.449219 104.992188 280.414062 108.695312 C 279.582031 111.753906 278.730469 114.902344 277.589844 117.90625 C 277.039062 118.492188 276.589844 119 276.238281 119.480469 C 274.5 121.757812 273.285156 124.390625 272.085938 126.9375 C 270.570312 128.167969 268.976562 128.527344 267.207031 128.046875 C 265.570312 127.589844 264.15625 126.355469 263.320312 124.636719 C 261.847656 121.636719 262.050781 118.5625 262.246094 115.300781 C 262.320312 114.054688 262.40625 112.761719 262.394531 111.496094 C 262.304688 106.972656 260.820312 102.4375 258.199219 98.746094 C 260.027344 98.875 261.847656 98.78125 263.5625 97.71875 C 264.984375 96.789062 265.71875 95.109375 265.253906 93.585938 C 265.226562 93.492188 265.203125 93.355469 265.132812 93.25 C 265.636719 93.203125 266.074219 93.003906 266.441406 92.707031 C 267.011719 92.261719 267.25 91.671875 267.230469 90.992188 C 267.195312 89.589844 265.839844 88.007812 264.515625 87.058594 L 257.628906 82.464844 C 256.175781 81.453125 254.421875 81.152344 252.847656 81.652344 C 252.375 81.796875 251.976562 82 251.617188 82.257812 L 252.097656 73.050781 C 252.121094 72.917969 252.101562 72.78125 252.085938 72.597656 C 252.605469 72.191406 253.023438 71.585938 253.441406 70.980469 C 254.355469 69.601562 254.984375 68.808594 256.136719 69.453125 C 256.75 69.828125 257.121094 70.566406 257.058594 71.457031 C 256.992188 72.394531 257.742188 73.558594 258.660156 73.984375 C 259.207031 74.210938 259.71875 74.117188 260.058594 73.726562 L 260.167969 73.609375 L 255.925781 60.085938 C 255.65625 59.273438 255.605469 58.5 255.691406 57.746094 C 255.972656 55.808594 257.160156 55.46875 258.820312 55.257812 C 262.46875 54.75 266.261719 54.175781 269.921875 54.933594 C 273.015625 55.59375 276.699219 57.527344 278.027344 61.132812 C 275.183594 61.414062 272.347656 61.386719 269.503906 61.128906 C 270.15625 60.742188 270.59375 60.007812 270.648438 59.160156 C 270.738281 58.363281 270.515625 57.558594 270.136719 56.863281 C 272.632812 57.828125 274.910156 59.296875 277.820312 61.277344 L 278.621094 60.828125 C 275.425781 58.660156 272.410156 57.023438 269.503906 56.078125 C 269.421875 56.019531 269.34375 55.960938 269.261719 55.902344 C 267.25 54.480469 264.457031 54.996094 262.515625 55.523438 C 262.136719 55.640625 261.792969 55.804688 261.527344 56.03125 C 260.761719 56.308594 260.019531 56.679688 259.398438 57.160156 L 259.039062 57.414062 L 259.410156 57.609375 C 259.820312 57.859375 260.234375 58.066406 260.695312 58.28125 C 260.722656 58.375 260.753906 58.46875 260.828125 58.574219 C 261.386719 59.796875 263.167969 60.726562 264.605469 61.019531 C 269.1875 61.929688 273.84375 62.136719 278.472656 61.703125 L 278.792969 61.667969 L 278.714844 61.339844 C 277.328125 57.273438 273.320312 55.105469 270.058594 54.414062 C 266.265625 53.636719 262.285156 54.222656 258.734375 54.699219 C 257.34375 54.914062 255.492188 55.1875 255.121094 57.648438 C 255.03125 58.445312 255.109375 59.316406 255.359375 60.214844 L 259.519531 73.453125 C 259.3125 73.597656 259.085938 73.605469 258.835938 73.472656 C 258.121094 73.171875 257.519531 72.210938 257.550781 71.496094 C 257.640625 70.429688 257.175781 69.449219 256.351562 68.992188 C 254.710938 68.039062 253.792969 69.460938 252.953125 70.671875 C 252.644531 71.160156 252.34375 71.605469 251.972656 71.945312 C 251.890625 71.617188 251.804688 71.332031 251.667969 71.082031 C 251.214844 70.285156 250.53125 69.808594 249.6875 69.710938 C 249.601562 69.695312 249.515625 69.679688 249.417969 69.710938 C 249.390625 69.074219 249.179688 68.453125 248.773438 67.933594 C 247.914062 66.886719 246.238281 66.917969 245.097656 67.535156 C 243.949219 68.195312 243.222656 69.289062 242.605469 70.265625 L 239.09375 75.53125 L 239.394531 75.628906 C 241.855469 76.539062 244.09375 73.992188 245.441406 72.417969 C 246.335938 71.394531 247.765625 70.421875 249.058594 70.234375 C 249.050781 70.277344 249.050781 70.277344 249.089844 70.332031 C 249.296875 71.492188 249.550781 72.664062 250.726562 72.90625 C 251.03125 72.960938 251.300781 72.960938 251.589844 72.875 C 251.582031 72.917969 251.574219 72.960938 251.574219 72.960938 L 251.054688 82.65625 C 251.003906 82.691406 250.945312 82.773438 250.894531 82.808594 C 249.167969 82.605469 247.210938 82.453125 245.476562 83.105469 C 244.128906 83.597656 243.015625 84.582031 242.011719 85.449219 L 232.84375 93.222656 C 232.324219 93.632812 232.117188 94.316406 232.289062 94.890625 C 232.425781 95.40625 232.695312 95.679688 233.078125 95.832031 Z M 290.28125 72.09375 C 290.429688 72.027344 290.566406 72.007812 290.699219 72.03125 C 290.785156 72.046875 290.867188 72.105469 290.992188 72.167969 C 291.355469 72.410156 291.550781 72.851562 291.515625 73.339844 L 291.46875 73.875 C 291.121094 78.050781 290.757812 82.320312 289.355469 86.320312 C 288.542969 88.707031 287.355469 90.9375 286.207031 93.175781 C 286.207031 93.175781 286.199219 93.222656 286.199219 93.222656 L 288.929688 74.480469 C 289.042969 73.550781 289.601562 72.382812 290.28125 72.09375 Z M 280.859375 108.996094 C 281.851562 105.285156 282.914062 101.410156 284.46875 97.839844 C 284.6875 97.339844 284.917969 96.789062 285.183594 96.292969 L 284.511719 100.777344 C 284.375 101.566406 284.6875 102.386719 285.316406 102.945312 C 285.941406 103.5 286.769531 103.6875 287.625 103.425781 C 287.859375 103.375 288.046875 103.316406 288.214844 103.390625 C 288.421875 103.515625 288.457031 103.839844 288.457031 104.109375 C 288.515625 106.417969 288.523438 108.761719 288.492188 111.058594 C 288.5 111.824219 288.421875 112.535156 288.0625 113.058594 C 287.484375 113.816406 286.378906 113.945312 285.328125 114.035156 C 285.144531 114.050781 284.960938 114.066406 284.777344 114.078125 C 282.160156 114.355469 279.992188 115.699219 278.402344 117.097656 C 279.339844 114.507812 280.121094 111.753906 280.859375 108.996094 Z M 276.566406 119.941406 C 276.675781 119.828125 276.792969 119.667969 276.902344 119.550781 C 276.226562 121.148438 275.417969 122.722656 274.441406 124.226562 C 274.007812 124.917969 273.539062 125.558594 273.046875 126.0625 C 274.082031 123.941406 275.164062 121.824219 276.566406 119.941406 Z M 260.589844 57.585938 C 260.375 57.503906 260.214844 57.386719 260.003906 57.304688 C 260.253906 57.167969 260.503906 57.03125 260.75 56.890625 C 260.667969 57.105469 260.582031 57.359375 260.589844 57.585938 Z M 264.660156 60.441406 C 263.484375 60.195312 262.066406 59.503906 261.410156 58.582031 C 263.5 59.566406 265.617188 60.378906 267.824219 60.933594 C 266.753906 60.84375 265.703125 60.664062 264.660156 60.441406 Z M 269.117188 60.746094 C 266.339844 60.09375 263.660156 59.144531 261.128906 57.859375 C 261.085938 57.578125 261.136719 57.273438 261.320312 56.988281 C 261.445312 56.785156 261.613281 56.585938 261.777344 56.433594 C 263.839844 55.703125 266.367188 55.683594 268.859375 56.421875 C 268.992188 56.441406 269.113281 56.507812 269.203125 56.523438 C 269.867188 57.132812 270.234375 58.140625 270.125 59.070312 C 270.085938 59.558594 269.90625 60.339844 269.117188 60.746094 Z M 245.039062 72.121094 C 243.417969 73.964844 241.726562 75.707031 239.90625 75.261719 L 243.050781 70.566406 C 243.660156 69.632812 244.378906 68.582031 245.382812 67.988281 C 246.28125 67.464844 247.6875 67.433594 248.355469 68.265625 C 248.699219 68.640625 248.828125 69.203125 248.957031 69.765625 C 247.523438 69.976562 245.988281 71.066406 245.039062 72.121094 Z M 250.851562 72.433594 C 250.027344 72.246094 249.816406 71.355469 249.636719 70.289062 C 249.679688 70.296875 249.679688 70.296875 249.722656 70.304688 C 250.390625 70.371094 250.914062 70.730469 251.300781 71.382812 C 251.429688 71.675781 251.5625 71.96875 251.589844 72.332031 C 251.339844 72.472656 251.113281 72.476562 250.851562 72.433594 Z M 256.796875 98.238281 C 256.265625 98.191406 255.730469 98.148438 255.242188 98.109375 C 253.675781 98.023438 252.046875 98.0625 250.496094 98.160156 C 247.039062 98.339844 243.769531 98.460938 240.867188 96.976562 C 240.492188 96.777344 240.003906 96.46875 239.84375 96.082031 C 239.6875 95.695312 239.753906 95.300781 239.847656 95 C 240.417969 93.246094 242.320312 92.667969 244.308594 92.105469 C 245.640625 91.699219 246.972656 91.296875 247.996094 90.566406 C 250.605469 90.605469 253.183594 91.359375 255.726562 92.058594 C 255.945312 92.097656 256.113281 92.171875 256.332031 92.207031 C 256.171875 92.359375 256.011719 92.515625 255.851562 92.667969 C 254.417969 94.453125 255.875 96.773438 257.054688 98.328125 Z M 263.203125 97.433594 C 261.484375 98.539062 259.640625 98.496094 257.726562 98.351562 C 256.363281 96.542969 255.003906 94.460938 256.25 92.960938 C 256.425781 92.71875 256.683594 92.539062 256.984375 92.363281 C 259.445312 93.007812 261.957031 93.613281 264.546875 93.511719 C 264.613281 93.660156 264.675781 93.804688 264.699219 93.945312 C 265.03125 95.171875 264.425781 96.601562 263.203125 97.433594 Z M 257.8125 92.007812 C 259.515625 91.53125 261.875 91.4375 263.320312 92.222656 C 263.648438 92.414062 263.972656 92.648438 264.191406 92.957031 C 262.027344 92.949219 259.886719 92.539062 257.8125 92.007812 Z M 251.191406 83.445312 C 251.234375 83.453125 251.277344 83.460938 251.324219 83.46875 L 251.585938 83.511719 L 251.632812 82.980469 C 252.003906 82.636719 252.460938 82.355469 253.03125 82.179688 C 254.457031 81.746094 256.035156 82.015625 257.324219 82.910156 L 264.132812 87.714844 C 265.300781 88.546875 266.589844 89.980469 266.652344 91.210938 C 266.65625 91.707031 266.496094 92.128906 266.035156 92.457031 C 265.71875 92.71875 265.285156 92.871094 264.824219 92.929688 C 264.542969 92.476562 264.113281 92.085938 263.578125 91.769531 C 261.847656 90.800781 259.238281 91.035156 257.527344 91.554688 C 257.292969 91.605469 257.09375 91.707031 256.898438 91.808594 C 256.554688 91.703125 256.167969 91.59375 255.824219 91.492188 C 254.1875 91.03125 252.507812 90.566406 250.796875 90.277344 C 250.054688 90.148438 249.300781 90.066406 248.539062 90.027344 C 248.648438 89.910156 248.761719 89.796875 248.878906 89.636719 C 249.625 88.679688 249.871094 87.503906 250.109375 86.371094 C 250.390625 85.25 250.605469 84.246094 251.191406 83.445312 Z M 233.214844 93.691406 L 242.382812 85.917969 C 243.386719 85.050781 244.441406 84.148438 245.695312 83.683594 C 247.238281 83.089844 248.976562 83.207031 250.570312 83.386719 C 250.070312 84.203125 249.847656 85.246094 249.640625 86.203125 C 249.410156 87.292969 249.128906 88.414062 248.492188 89.253906 C 248.316406 89.496094 248.050781 89.71875 247.789062 89.945312 C 247.386719 89.921875 246.976562 89.945312 246.558594 90.007812 C 242.355469 90.332031 238.589844 92.578125 235.46875 94.753906 C 234.804688 95.226562 233.84375 95.558594 233.246094 95.367188 C 233.035156 95.285156 232.882812 95.125 232.832031 94.890625 C 232.722656 94.464844 232.890625 94 233.214844 93.691406 Z M 233.214844 93.691406 " fill-opacity="1" fill-rule="nonzero"/></g></g></g></g><g clip-path="url(#0d04ab81b2)"><g clip-path="url(#65e8206f5e)"><g clip-path="url(#b0fddaa00f)"><g clip-path="url(#630654945a)"><path fill="#000000" d="M 235.292969 127.949219 C 233.230469 127.597656 231.199219 127.074219 229.296875 126.074219 C 227.144531 124.941406 225.355469 123.242188 223.652344 121.597656 L 213.976562 112.425781 C 212.613281 111.160156 211.214844 109.839844 210.285156 108.148438 C 209.25 106.261719 209.015625 104.191406 209.65625 102.542969 L 209.804688 102.207031 L 210.082031 102.433594 C 214.464844 105.839844 218.230469 109.949219 221.324219 114.578125 C 221.726562 115.140625 222.074219 115.742188 222.429688 116.296875 C 223.753906 118.324219 225.109375 120.449219 226.902344 122.105469 C 230.882812 125.757812 236.609375 126.820312 241.214844 127.332031 C 245.511719 128.058594 250.074219 128.023438 254.496094 128.007812 L 255.351562 128.015625 C 256.207031 128.027344 257.070312 127.992188 257.929688 127.960938 C 261.058594 127.859375 264.042969 127.824219 267.046875 128.46875 L 268.609375 128.824219 L 267.042969 129.011719 C 264.792969 129.257812 262.804688 129.28125 260.859375 129.3125 C 259.140625 129.335938 257.335938 129.347656 255.359375 129.550781 C 253.210938 129.726562 250.964844 129.933594 248.773438 129.832031 C 246.9375 129.746094 245.097656 129.433594 243.300781 129.128906 C 242.511719 128.992188 241.722656 128.859375 240.976562 128.734375 C 240.230469 128.605469 239.480469 128.523438 238.726562 128.441406 C 237.535156 128.285156 236.386719 128.132812 235.292969 127.949219 Z M 210.058594 103.105469 C 209.59375 104.515625 209.871094 106.320312 210.773438 107.917969 C 211.675781 109.511719 213.03125 110.824219 214.351562 112.085938 L 224.023438 121.257812 C 225.738281 122.855469 227.480469 124.546875 229.554688 125.621094 C 232.328125 127.085938 235.550781 127.496094 238.683594 127.894531 C 239.4375 127.976562 240.226562 128.109375 240.976562 128.191406 C 241.765625 128.328125 242.554688 128.460938 243.34375 128.59375 C 245.097656 128.890625 246.941406 129.203125 248.730469 129.28125 C 250.925781 129.386719 253.125 129.171875 255.230469 128.988281 C 257.25 128.789062 259.054688 128.78125 260.773438 128.757812 C 262.082031 128.753906 263.441406 128.714844 264.851562 128.640625 C 262.601562 128.347656 260.289062 128.40625 257.929688 128.5 C 257.066406 128.535156 256.210938 128.523438 255.347656 128.558594 L 254.492188 128.546875 C 250.0625 128.609375 245.457031 128.636719 241.117188 127.902344 C 236.46875 127.382812 230.609375 126.296875 226.515625 122.535156 C 224.683594 120.828125 223.285156 118.695312 221.96875 116.625 C 221.613281 116.066406 221.21875 115.460938 220.863281 114.902344 C 217.929688 110.394531 214.273438 106.4375 210.058594 103.105469 Z M 210.058594 103.105469 " fill-opacity="1" fill-rule="nonzero"/></g></g></g></g><g fill="#000000" fill-opacity="1"><g transform="translate(47.267038, 297.389366)"><g><path d="M 1.246094 0 L 8.988281 0 L 8.988281 -0.683594 L 1.976562 -0.683594 L 1.976562 -10.902344 L 1.246094 -10.902344 Z M 1.246094 0 "/></g></g></g><g fill="#000000" fill-opacity="1"><g transform="translate(60.537494, 297.389366)"><g><path d="M 1.246094 0 L 9.363281 0 L 9.363281 -0.683594 L 1.960938 -0.683594 L 1.960938 -5.25 L 8.101562 -5.25 L 8.101562 -5.871094 L 1.960938 -5.871094 L 1.960938 -10.21875 L 9.175781 -10.21875 L 9.175781 -10.902344 L 1.246094 -10.902344 Z M 1.246094 0 "/></g></g></g><g fill="#000000" fill-opacity="1"><g transform="translate(74.446485, 297.389366)"><g><path d="M 6.792969 0.1875 C 8.242188 0.1875 9.503906 -0.234375 10.5 -0.964844 L 10.5 -1.761719 C 9.582031 -0.980469 8.242188 -0.5 6.792969 -0.5 C 3.753906 -0.5 1.574219 -2.429688 1.574219 -5.359375 C 1.574219 -8.226562 3.738281 -10.390625 6.777344 -10.390625 C 7.960938 -10.390625 8.972656 -10.078125 9.828125 -9.535156 L 9.921875 -10.34375 C 9.035156 -10.8125 7.929688 -11.074219 6.792969 -11.074219 C 3.332031 -11.074219 0.855469 -8.644531 0.855469 -5.359375 C 0.855469 -2.039062 3.316406 0.1875 6.792969 0.1875 Z M 6.792969 0.1875 "/></g></g></g><g fill="#000000" fill-opacity="1"><g transform="translate(89.071887, 297.389366)"><g><path d="M 0.730469 0 L 9.378906 0 L 9.378906 -0.683594 L 2.054688 -0.683594 L 2.007812 -0.746094 L 9.191406 -10.71875 L 9.191406 -10.902344 L 0.964844 -10.902344 L 0.964844 -10.21875 L 7.882812 -10.21875 L 7.945312 -10.140625 L 0.730469 -0.15625 Z M 0.730469 0 "/></g></g></g><g fill="#000000" fill-opacity="1"><g transform="translate(102.871861, 297.389366)"><g><path d="M 10.09375 0.1875 L 10.359375 0.1875 L 10.359375 -10.902344 L 9.640625 -10.902344 L 9.640625 -1.636719 L 9.550781 -1.636719 L 1.511719 -11.074219 L 1.246094 -11.074219 L 1.246094 0 L 1.960938 0 L 1.960938 -9.269531 L 2.070312 -9.269531 Z M 10.09375 0.1875 "/></g></g></g><g fill="#000000" fill-opacity="1"><g transform="translate(118.166958, 297.389366)"><g><path d="M 1.246094 0 L 1.976562 0 L 1.976562 -10.902344 L 1.246094 -10.902344 Z M 1.246094 0 "/></g></g></g><g fill="#000000" fill-opacity="1"><g transform="translate(125.083148, 297.389366)"><g><path d="M 6.792969 0.1875 C 8.242188 0.1875 9.503906 -0.234375 10.5 -0.964844 L 10.5 -1.761719 C 9.582031 -0.980469 8.242188 -0.5 6.792969 -0.5 C 3.753906 -0.5 1.574219 -2.429688 1.574219 -5.359375 C 1.574219 -8.226562 3.738281 -10.390625 6.777344 -10.390625 C 7.960938 -10.390625 8.972656 -10.078125 9.828125 -9.535156 L 9.921875 -10.34375 C 9.035156 -10.8125 7.929688 -11.074219 6.792969 -11.074219 C 3.332031 -11.074219 0.855469 -8.644531 0.855469 -5.359375 C 0.855469 -2.039062 3.316406 0.1875 6.792969 0.1875 Z M 6.792969 0.1875 "/></g></g></g><g fill="#000000" fill-opacity="1"><g transform="translate(139.708548, 297.389366)"><g><path d="M 0.730469 0 L 9.378906 0 L 9.378906 -0.683594 L 2.054688 -0.683594 L 2.007812 -0.746094 L 9.191406 -10.71875 L 9.191406 -10.902344 L 0.964844 -10.902344 L 0.964844 -10.21875 L 7.882812 -10.21875 L 7.945312 -10.140625 L 0.730469 -0.15625 Z M 0.730469 0 "/></g></g></g><g fill="#000000" fill-opacity="1"><g transform="translate(153.508519, 297.389366)"><g><path d="M 0.1875 0 L 1.011719 0 L 2.023438 -2.242188 L 8.941406 -2.242188 L 9.96875 0 L 10.78125 0 L 5.59375 -11.074219 L 5.375 -11.074219 Z M 2.320312 -2.851562 L 5.4375 -9.65625 L 5.53125 -9.65625 L 8.660156 -2.851562 Z M 2.320312 -2.851562 "/></g></g></g><g fill="#000000" fill-opacity="1"><g transform="translate(168.165069, 297.389366)"><g/></g></g><g fill="#000000" fill-opacity="1"><g transform="translate(176.06243, 297.389366)"><g><path d="M 1.246094 0 L 1.976562 0 L 1.976562 -10.902344 L 1.246094 -10.902344 Z M 1.246094 0 "/></g></g></g><g fill="#000000" fill-opacity="1"><g transform="translate(182.978621, 297.389366)"><g/></g></g><g fill="#000000" fill-opacity="1"><g transform="translate(190.875982, 297.389366)"><g><path d="M 1.246094 0 L 9.363281 0 L 9.363281 -0.683594 L 1.960938 -0.683594 L 1.960938 -5.25 L 8.101562 -5.25 L 8.101562 -5.871094 L 1.960938 -5.871094 L 1.960938 -10.21875 L 9.175781 -10.21875 L 9.175781 -10.902344 L 1.246094 -10.902344 Z M 1.246094 0 "/></g></g></g><g fill="#000000" fill-opacity="1"><g transform="translate(204.784971, 297.389366)"><g><path d="M 5.0625 0.1875 C 7.523438 0.1875 9.019531 -1.058594 9.019531 -2.835938 C 9.019531 -4.410156 7.976562 -5.265625 5.171875 -5.839844 C 2.710938 -6.355469 1.855469 -7.011719 1.855469 -8.195312 C 1.855469 -9.363281 2.960938 -10.40625 4.875 -10.40625 C 6.449219 -10.40625 7.664062 -9.953125 8.410156 -9.535156 L 8.410156 -10.28125 C 7.632812 -10.6875 6.417969 -11.074219 4.921875 -11.074219 C 2.664062 -11.074219 1.105469 -9.8125 1.105469 -8.179688 C 1.105469 -6.527344 2.242188 -5.734375 4.921875 -5.1875 C 7.476562 -4.65625 8.273438 -3.988281 8.273438 -2.789062 C 8.273438 -1.433594 6.980469 -0.46875 5.109375 -0.46875 C 3.832031 -0.46875 2.101562 -0.824219 0.839844 -1.605469 L 0.667969 -0.917969 C 1.824219 -0.25 3.816406 0.1875 5.0625 0.1875 Z M 5.0625 0.1875 "/></g></g></g><g fill="#000000" fill-opacity="1"><g transform="translate(218.289033, 297.389366)"><g><path d="M 4.484375 0 L 5.21875 0 L 5.21875 -10.21875 L 9.207031 -10.21875 L 9.207031 -10.902344 L 0.5 -10.902344 L 0.5 -10.21875 L 4.484375 -10.21875 Z M 4.484375 0 "/></g></g></g><g fill="#000000" fill-opacity="1"><g transform="translate(231.684078, 297.389366)"><g><path d="M 1.246094 0 L 9.363281 0 L 9.363281 -0.683594 L 1.960938 -0.683594 L 1.960938 -5.25 L 8.101562 -5.25 L 8.101562 -5.871094 L 1.960938 -5.871094 L 1.960938 -10.21875 L 9.175781 -10.21875 L 9.175781 -10.902344 L 1.246094 -10.902344 Z M 1.246094 0 "/></g></g></g><g fill="#000000" fill-opacity="1"><g transform="translate(245.593066, 297.389366)"><g><path d="M 4.484375 0 L 5.21875 0 L 5.21875 -10.21875 L 9.207031 -10.21875 L 9.207031 -10.902344 L 0.5 -10.902344 L 0.5 -10.21875 L 4.484375 -10.21875 Z M 4.484375 0 "/></g></g></g><g fill="#000000" fill-opacity="1"><g transform="translate(258.988123, 297.389366)"><g><path d="M 4.8125 0 L 5.53125 0 L 5.53125 -4.441406 L 10.171875 -10.902344 L 9.316406 -10.902344 L 5.21875 -5.265625 L 5.125 -5.265625 L 1.058594 -10.902344 L 0.1875 -10.902344 L 4.8125 -4.457031 Z M 4.8125 0 "/></g></g></g><g fill="#000000" fill-opacity="1"><g transform="translate(273.037278, 297.389366)"><g><path d="M 6.792969 0.1875 C 8.242188 0.1875 9.503906 -0.234375 10.5 -0.964844 L 10.5 -1.761719 C 9.582031 -0.980469 8.242188 -0.5 6.792969 -0.5 C 3.753906 -0.5 1.574219 -2.429688 1.574219 -5.359375 C 1.574219 -8.226562 3.738281 -10.390625 6.777344 -10.390625 C 7.960938 -10.390625 8.972656 -10.078125 9.828125 -9.535156 L 9.921875 -10.34375 C 9.035156 -10.8125 7.929688 -11.074219 6.792969 -11.074219 C 3.332031 -11.074219 0.855469 -8.644531 0.855469 -5.359375 C 0.855469 -2.039062 3.316406 0.1875 6.792969 0.1875 Z M 6.792969 0.1875 "/></g></g></g><g fill="#000000" fill-opacity="1"><g transform="translate(287.662689, 297.389366)"><g><path d="M 0.730469 0 L 9.378906 0 L 9.378906 -0.683594 L 2.054688 -0.683594 L 2.007812 -0.746094 L 9.191406 -10.71875 L 9.191406 -10.902344 L 0.964844 -10.902344 L 0.964844 -10.21875 L 7.882812 -10.21875 L 7.945312 -10.140625 L 0.730469 -0.15625 Z M 0.730469 0 "/></g></g></g><g fill="#000000" fill-opacity="1"><g transform="translate(301.462661, 297.389366)"><g><path d="M 10.09375 0.1875 L 10.359375 0.1875 L 10.359375 -10.902344 L 9.640625 -10.902344 L 9.640625 -1.636719 L 9.550781 -1.636719 L 1.511719 -11.074219 L 1.246094 -11.074219 L 1.246094 0 L 1.960938 0 L 1.960938 -9.269531 L 2.070312 -9.269531 Z M 10.09375 0.1875 "/></g></g></g><g fill="#000000" fill-opacity="1"><g transform="translate(316.757757, 297.389366)"><g><path d="M 0.1875 0 L 1.011719 0 L 2.023438 -2.242188 L 8.941406 -2.242188 L 9.96875 0 L 10.78125 0 L 5.59375 -11.074219 L 5.375 -11.074219 Z M 2.320312 -2.851562 L 5.4375 -9.65625 L 5.53125 -9.65625 L 8.660156 -2.851562 Z M 2.320312 -2.851562 "/></g></g></g><g fill="#000000" fill-opacity="1"><g transform="translate(31.920155, 197.043145)"><g><path d="M 26.167969 0.964844 C 38.890625 0.964844 46.617188 -5.476562 46.617188 -14.652344 C 46.617188 -22.785156 41.222656 -27.214844 26.730469 -30.195312 C 14.011719 -32.851562 9.582031 -36.230469 9.582031 -42.351562 C 9.582031 -48.390625 15.296875 -53.785156 25.203125 -53.785156 C 33.332031 -53.785156 39.613281 -51.449219 43.480469 -49.277344 L 43.480469 -53.140625 C 39.453125 -55.234375 33.171875 -57.246094 25.441406 -57.246094 C 13.769531 -57.246094 5.714844 -50.726562 5.714844 -42.269531 C 5.714844 -33.734375 11.59375 -29.628906 25.441406 -26.8125 C 38.648438 -24.074219 42.753906 -20.613281 42.753906 -14.414062 C 42.753906 -7.40625 36.070312 -2.414062 26.410156 -2.414062 C 19.808594 -2.414062 10.871094 -4.265625 4.347656 -8.292969 L 3.460938 -4.75 C 9.421875 -1.289062 19.726562 0.964844 26.167969 0.964844 Z M 26.167969 0.964844 "/></g></g></g><g fill="#000000" fill-opacity="1"><g transform="translate(91.098866, 197.043145)"><g><path d="M 0.964844 0 L 5.234375 0 L 10.46875 -11.59375 L 46.214844 -11.59375 L 51.53125 0 L 55.71875 0 L 28.90625 -57.246094 L 27.777344 -57.246094 Z M 11.996094 -14.734375 L 28.101562 -49.921875 L 28.582031 -49.921875 L 44.765625 -14.734375 Z M 11.996094 -14.734375 "/></g></g></g><g fill="#000000" fill-opacity="1"><g transform="translate(156.235667, 197.043145)"><g><path d="M 29.953125 0.964844 C 43.558594 0.964844 53.542969 -7.488281 53.542969 -21.257812 L 53.542969 -56.359375 L 49.757812 -56.359375 L 49.757812 -21.257812 C 49.757812 -9.5 41.386719 -2.578125 29.953125 -2.578125 C 18.519531 -2.578125 10.226562 -9.5 10.226562 -21.257812 L 10.226562 -56.359375 L 6.441406 -56.359375 L 6.441406 -21.257812 C 6.441406 -7.488281 16.425781 0.964844 29.953125 0.964844 Z M 29.953125 0.964844 "/></g></g></g><g fill="#000000" fill-opacity="1"><g transform="translate(224.673564, 197.043145)"><g><path d="M 23.1875 0 L 26.972656 0 L 26.972656 -52.820312 L 47.585938 -52.820312 L 47.585938 -56.359375 L 2.578125 -56.359375 L 2.578125 -52.820312 L 23.1875 -52.820312 Z M 23.1875 0 "/></g></g></g><g fill="#000000" fill-opacity="1"><g transform="translate(283.288673, 197.043145)"><g><path d="M 25.121094 -61.433594 L 27.777344 -61.433594 L 34.863281 -77.132812 L 31.160156 -77.132812 Z M 6.441406 0 L 48.390625 0 L 48.390625 -3.542969 L 10.144531 -3.542969 L 10.144531 -27.132812 L 38.648438 -27.132812 L 38.648438 -30.355469 L 10.144531 -30.355469 L 10.144531 -52.820312 L 47.425781 -52.820312 L 47.425781 -56.359375 L 6.441406 -56.359375 Z M 6.441406 0 "/></g></g></g><g fill="#000000" fill-opacity="1"><g transform="translate(48.324406, 268.138094)"><g><path d="M 2.015625 0 L 3.203125 0 L 3.203125 -5.546875 L 7.335938 -9.453125 L 7.535156 -9.453125 L 15.652344 0 L 17.089844 0 L 8.34375 -10.335938 L 16.03125 -17.644531 L 14.542969 -17.644531 L 3.351562 -7.082031 L 3.203125 -7.082031 L 3.203125 -17.644531 L 2.015625 -17.644531 Z M 2.015625 0 "/></g></g></g><g fill="#000000" fill-opacity="1"><g transform="translate(72.171066, 268.138094)"><g><path d="M 10.183594 0.300781 C 15.277344 0.300781 19.007812 -3.480469 19.007812 -8.796875 C 19.007812 -14.117188 15.277344 -17.921875 10.183594 -17.921875 C 5.117188 -17.921875 1.386719 -14.117188 1.386719 -8.796875 C 1.386719 -3.480469 5.117188 0.300781 10.183594 0.300781 Z M 10.183594 -0.804688 C 5.773438 -0.804688 2.546875 -4.132812 2.546875 -8.796875 C 2.546875 -13.460938 5.773438 -16.8125 10.183594 -16.8125 C 14.621094 -16.8125 17.847656 -13.460938 17.847656 -8.796875 C 17.847656 -4.132812 14.621094 -0.804688 10.183594 -0.804688 Z M 10.183594 -0.804688 "/></g></g></g><g fill="#000000" fill-opacity="1"><g transform="translate(98.790502, 268.138094)"><g><path d="M 8.191406 0.300781 C 12.175781 0.300781 14.59375 -1.714844 14.59375 -4.585938 C 14.59375 -7.132812 12.90625 -8.519531 8.367188 -9.453125 C 4.386719 -10.285156 3 -11.34375 3 -13.257812 C 3 -15.148438 4.789062 -16.839844 7.890625 -16.839844 C 10.4375 -16.839844 12.402344 -16.109375 13.613281 -15.425781 L 13.613281 -16.636719 C 12.351562 -17.292969 10.386719 -17.921875 7.964844 -17.921875 C 4.308594 -17.921875 1.789062 -15.878906 1.789062 -13.234375 C 1.789062 -10.5625 3.628906 -9.277344 7.964844 -8.394531 C 12.097656 -7.535156 13.386719 -6.453125 13.386719 -4.511719 C 13.386719 -2.320312 11.292969 -0.757812 8.269531 -0.757812 C 6.199219 -0.757812 3.402344 -1.335938 1.359375 -2.597656 L 1.082031 -1.488281 C 2.949219 -0.402344 6.175781 0.300781 8.191406 0.300781 Z M 8.191406 0.300781 "/></g></g></g><g fill="#000000" fill-opacity="1"><g transform="translate(120.897877, 268.138094)"><g><path d="M 0.78125 0 L 1.964844 0 L 5.167969 -14.417969 L 5.320312 -14.417969 L 10.5625 -2.445312 L 11.039062 -2.445312 L 16.257812 -14.417969 L 16.433594 -14.417969 L 19.636719 0 L 20.820312 0 L 16.964844 -17.921875 L 16.433594 -17.921875 L 10.890625 -5.117188 L 10.714844 -5.117188 L 5.167969 -17.921875 L 4.636719 -17.921875 Z M 0.78125 0 "/></g></g></g><g fill="#000000" fill-opacity="1"><g transform="translate(148.727251, 268.138094)"><g><path d="M 2.015625 0 L 15.148438 0 L 15.148438 -1.109375 L 3.175781 -1.109375 L 3.175781 -8.496094 L 13.109375 -8.496094 L 13.109375 -9.503906 L 3.175781 -9.503906 L 3.175781 -16.535156 L 14.847656 -16.535156 L 14.847656 -17.644531 L 2.015625 -17.644531 Z M 2.015625 0 "/></g></g></g><g fill="#000000" fill-opacity="1"><g transform="translate(171.490006, 268.138094)"><g><path d="M 7.257812 0 L 8.445312 0 L 8.445312 -16.535156 L 14.898438 -16.535156 L 14.898438 -17.644531 L 0.804688 -17.644531 L 0.804688 -16.535156 L 7.257812 -16.535156 Z M 7.257812 0 "/></g></g></g><g fill="#000000" fill-opacity="1"><g transform="translate(193.420924, 268.138094)"><g><path d="M 10.183594 0.300781 C 15.277344 0.300781 19.007812 -3.480469 19.007812 -8.796875 C 19.007812 -14.117188 15.277344 -17.921875 10.183594 -17.921875 C 5.117188 -17.921875 1.386719 -14.117188 1.386719 -8.796875 C 1.386719 -3.480469 5.117188 0.300781 10.183594 0.300781 Z M 10.183594 -0.804688 C 5.773438 -0.804688 2.546875 -4.132812 2.546875 -8.796875 C 2.546875 -13.460938 5.773438 -16.8125 10.183594 -16.8125 C 14.621094 -16.8125 17.847656 -13.460938 17.847656 -8.796875 C 17.847656 -4.132812 14.621094 -0.804688 10.183594 -0.804688 Z M 10.183594 -0.804688 "/></g></g></g><g fill="#000000" fill-opacity="1"><g transform="translate(220.040361, 268.138094)"><g><path d="M 2.015625 0 L 14.542969 0 L 14.542969 -1.109375 L 3.203125 -1.109375 L 3.203125 -17.644531 L 2.015625 -17.644531 Z M 2.015625 0 "/></g></g></g><g fill="#000000" fill-opacity="1"><g transform="translate(241.769622, 268.138094)"><g><path d="M 10.183594 0.300781 C 15.277344 0.300781 19.007812 -3.480469 19.007812 -8.796875 C 19.007812 -14.117188 15.277344 -17.921875 10.183594 -17.921875 C 5.117188 -17.921875 1.386719 -14.117188 1.386719 -8.796875 C 1.386719 -3.480469 5.117188 0.300781 10.183594 0.300781 Z M 10.183594 -0.804688 C 5.773438 -0.804688 2.546875 -4.132812 2.546875 -8.796875 C 2.546875 -13.460938 5.773438 -16.8125 10.183594 -16.8125 C 14.621094 -16.8125 17.847656 -13.460938 17.847656 -8.796875 C 17.847656 -4.132812 14.621094 -0.804688 10.183594 -0.804688 Z M 10.183594 -0.804688 "/></g></g></g><g fill="#000000" fill-opacity="1"><g transform="translate(268.389059, 268.138094)"><g><path d="M 10.109375 0.300781 C 14.621094 0.300781 18.25 -3.074219 18.503906 -8.191406 L 20.542969 -8.191406 L 20.542969 -9.226562 L 10.636719 -9.226562 L 10.636719 -8.191406 L 17.34375 -8.191406 C 17.089844 -3.855469 13.941406 -0.804688 10.109375 -0.804688 C 5.875 -0.804688 2.546875 -3.90625 2.546875 -8.570312 C 2.546875 -13.109375 5.921875 -16.8125 10.359375 -16.8125 C 12.957031 -16.8125 15.175781 -15.730469 16.359375 -14.417969 L 17.191406 -15.351562 C 15.878906 -16.738281 13.941406 -17.921875 10.359375 -17.921875 C 5.269531 -17.921875 1.386719 -13.738281 1.386719 -8.570312 C 1.386719 -3.25 5.21875 0.300781 10.109375 0.300781 Z M 10.109375 0.300781 "/></g></g></g><g fill="#000000" fill-opacity="1"><g transform="translate(295.890743, 268.138094)"><g/></g></g><g fill="#000000" fill-opacity="1"><g transform="translate(308.923594, 268.138094)"><g><path d="M 0.300781 0 L 1.636719 0 L 3.277344 -3.628906 L 14.46875 -3.628906 L 16.132812 0 L 17.445312 0 L 9.050781 -17.921875 L 8.695312 -17.921875 Z M 3.757812 -4.613281 L 8.796875 -15.628906 L 8.949219 -15.628906 L 14.015625 -4.613281 Z M 3.757812 -4.613281 "/></g></g></g></svg>